{"accessors":[{"bufferView":0,"componentType":5126,"count":540,"max":[0.5680705904960632,0.5680705904960632,0.5680705904960632],"min":[-0.5680705904960632,-0.5680705904960632,-0.5680705904960632],"type":"VEC3"},{"bufferView":1,"componentType":5126,"count":540,"max":[0.9794321060180664,0.9794321060180664,0.9794321060180664],"min":[-0.9794321060180664,-0.9794321060180664,-0.9794321060180664],"type":"VEC3"},{"bufferView":2,"componentType":5126,"count":540,"max":[1.0429178476333618,0.9353293180465698],"min":[0,0.06467068195343018],"type":"VEC2"},{"bufferView":3,"componentType":5126,"count":425,"max":[0.20499999821186066,0.20499999821186066,0.20499999821186066],"min":[-0.20499999821186066,-0.20499999821186066,-0.20499999821186066],"type":"VEC3"},{"bufferView":4,"componentType":5126,"count":425,"max":[1,1,1],"min":[-1,-1,-1],"type":"VEC3"},{"bufferView":5,"componentType":5126,"count":425,"max":[1.0208333730697632,1],"min":[-0.02083333395421505,0],"type":"VEC2"},{"bufferView":6,"componentType":5123,"count":2160,"max":[424],"min":[0],"type":"SCALAR"},{"bufferView":7,"componentType":5126,"count":187,"max":[0.06499999761581421,0.06499999761581421,0.06499999761581421],"min":[-0.06499999761581421,-0.06499999761581421,-0.06499999761581421],"type":"VEC3"},{"bufferView":8,"componentType":5126,"count":187,"max":[1,1,1],"min":[-1,-1,-1],"type":"VEC3"},{"bufferView":9,"componentType":5126,"count":187,"max":[1.03125,1],"min":[-0.03125,0],"type":"VEC2"},{"bufferView":10,"componentType":5123,"count":864,"max":[186],"min":[0],"type":"SCALAR"},{"bufferView":11,"componentType":5126,"count":2,"max":[0.14000000059604645,0,0],"min":[-0.14000000059604645,0,0],"type":"VEC3"},{"bufferView":12,"componentType":5126,"count":2,"max":[0,0,0,1],"min":[0,0,0,1],"type":"VEC4"},{"bufferView":13,"componentType":5126,"count":2,"max":[1,0.7799999713897705,0.44999998807907104],"min":[1,0.7799999713897705,0.44999998807907104],"type":"VEC3"},{"bufferView":14,"componentType":5126,"count":275,"max":[0.47699999809265137,0.468344122171402,0.04469965770840645],"min":[0.07263243943452835,0,-0.04469965770840645],"type":"VEC3"},{"bufferView":15,"componentType":5126,"count":275,"max":[1,0.9818535447120667,0.9510565400123596],"min":[-1,-0.9818535447120667,-0.9510565400123596],"type":"VEC3"},{"bufferView":16,"componentType":5126,"count":275,"max":[1,1],"min":[0,0],"type":"VEC2"},{"bufferView":17,"componentType":5123,"count":1440,"max":[274],"min":[0],"type":"SCALAR"},{"bufferView":18,"componentType":5126,"count":231,"max":[0.47699999809265137,0.44103705883026123,0.04469965770840645],"min":[0.14589421451091766,0,-0.04469965770840645],"type":"VEC3"},{"bufferView":19,"componentType":5126,"count":231,"max":[1,0.9246060252189636,0.9510565400123596],"min":[-1,-0.9246060252189636,-0.9510565400123596],"type":"VEC3"},{"bufferView":20,"componentType":5126,"count":231,"max":[1,1],"min":[0,0],"type":"VEC2"},{"bufferView":21,"componentType":5123,"count":1200,"max":[230],"min":[0],"type":"SCALAR"},{"bufferView":22,"componentType":5126,"count":32,"max":[0.23999999463558197,0.09000000357627869,0.16500000655651093],"min":[-0.23999999463558197,-0.09000000357627869,-0.16500000655651093],"type":"VEC3"},{"bufferView":23,"componentType":5126,"count":32,"max":[1,1,1],"min":[-1,-1,-1],"type":"VEC3"},{"bufferView":24,"componentType":5126,"count":32,"max":[1,1],"min":[0,0],"type":"VEC2"},{"bufferView":25,"componentType":5123,"count":60,"max":[31],"min":[0],"type":"SCALAR"},{"bufferView":26,"componentType":5126,"count":32,"max":[0.20999999344348907,0.07999999821186066,0.15000000596046448],"min":[-0.20999999344348907,-0.07999999821186066,-0.15000000596046448],"type":"VEC3"},{"bufferView":27,"componentType":5126,"count":32,"max":[1,1,1],"min":[-1,-1,-1],"type":"VEC3"},{"bufferView":28,"componentType":5126,"count":32,"max":[1,1],"min":[0,0],"type":"VEC2"},{"bufferView":29,"componentType":5123,"count":60,"max":[31],"min":[0],"type":"SCALAR"},{"bufferView":30,"componentType":5126,"count":76,"max":[0.28999999165534973,0.14000000059604645,0.28999999165534973],"min":[-0.28999999165534973,-0.14000000059604645,-0.28999999165534973],"type":"VEC3"},{"bufferView":31,"componentType":5126,"count":76,"max":[0.9778023958206177,1,0.9778023958206177],"min":[-0.9778023958206177,-1,-0.9778023958206177],"type":"VEC3"},{"bufferView":32,"componentType":5126,"count":76,"max":[1,1],"min":[0,0],"type":"VEC2"},{"bufferView":33,"componentType":5123,"count":144,"max":[75],"min":[0],"type":"SCALAR"},{"bufferView":34,"componentType":5126,"count":24,"max":[0.1550000011920929,0.10999999940395355,0.027499999850988388],"min":[-0.1550000011920929,-0.10999999940395355,-0.027499999850988388],"type":"VEC3"},{"bufferView":35,"componentType":5126,"count":24,"max":[1,1,1],"min":[-1,-1,-1],"type":"VEC3"},{"bufferView":36,"componentType":5126,"count":24,"max":[1,1],"min":[0,0],"type":"VEC2"},{"bufferView":37,"componentType":5123,"count":36,"max":[23],"min":[0],"type":"SCALAR"},{"bufferView":38,"componentType":5126,"count":24,"max":[0.027499999850988388,0.008999999612569809,0.009999999776482582],"min":[-0.027499999850988388,-0.008999999612569809,-0.009999999776482582],"type":"VEC3"},{"bufferView":39,"componentType":5126,"count":24,"max":[1,1,1],"min":[-1,-1,-1],"type":"VEC3"},{"bufferView":40,"componentType":5126,"count":24,"max":[1,1],"min":[0,0],"type":"VEC2"},{"bufferView":41,"componentType":5123,"count":36,"max":[23],"min":[0],"type":"SCALAR"},{"bufferView":42,"componentType":5126,"count":4,"max":[0.17499999701976776,-0.3100000023841858,0.49300000071525574],"min":[-0.17000000178813934,-0.3100000023841858,0.49300000071525574],"type":"VEC3"},{"bufferView":43,"componentType":5126,"count":4,"max":[0,0,-0.10977829992771149,0.9939560890197754],"min":[0,0,-0.10977829992771149,0.9939560890197754],"type":"VEC4"},{"bufferView":44,"componentType":5126,"count":4,"max":[1,1,1],"min":[1,1,1],"type":"VEC3"}],"asset":{"generator":"THREE.GLTFExporter r185","version":"2.0"},"bufferViews":[{"buffer":0,"byteLength":6480,"byteOffset":0,"byteStride":12,"target":34962},{"buffer":0,"byteLength":6480,"byteOffset":6480,"byteStride":12,"target":34962},{"buffer":0,"byteLength":4320,"byteOffset":12960,"byteStride":8,"target":34962},{"buffer":0,"byteLength":5100,"byteOffset":17280,"byteStride":12,"target":34962},{"buffer":0,"byteLength":5100,"byteOffset":22380,"byteStride":12,"target":34962},{"buffer":0,"byteLength":3400,"byteOffset":27480,"byteStride":8,"target":34962},{"buffer":0,"byteLength":4320,"byteOffset":30880,"target":34963},{"buffer":0,"byteLength":2244,"byteOffset":35200,"byteStride":12,"target":34962},{"buffer":0,"byteLength":2244,"byteOffset":37444,"byteStride":12,"target":34962},{"buffer":0,"byteLength":1496,"byteOffset":39688,"byteStride":8,"target":34962},{"buffer":0,"byteLength":1728,"byteOffset":41184,"target":34963},{"buffer":0,"byteLength":24,"byteOffset":42912},{"buffer":0,"byteLength":32,"byteOffset":42936},{"buffer":0,"byteLength":24,"byteOffset":42968},{"buffer":0,"byteLength":3300,"byteOffset":42992,"byteStride":12,"target":34962},{"buffer":0,"byteLength":3300,"byteOffset":46292,"byteStride":12,"target":34962},{"buffer":0,"byteLength":2200,"byteOffset":49592,"byteStride":8,"target":34962},{"buffer":0,"byteLength":2880,"byteOffset":51792,"target":34963},{"buffer":0,"byteLength":2772,"byteOffset":54672,"byteStride":12,"target":34962},{"buffer":0,"byteLength":2772,"byteOffset":57444,"byteStride":12,"target":34962},{"buffer":0,"byteLength":1848,"byteOffset":60216,"byteStride":8,"target":34962},{"buffer":0,"byteLength":2400,"byteOffset":62064,"target":34963},{"buffer":0,"byteLength":384,"byteOffset":64464,"byteStride":12,"target":34962},{"buffer":0,"byteLength":384,"byteOffset":64848,"byteStride":12,"target":34962},{"buffer":0,"byteLength":256,"byteOffset":65232,"byteStride":8,"target":34962},{"buffer":0,"byteLength":120,"byteOffset":65488,"target":34963},{"buffer":0,"byteLength":384,"byteOffset":65608,"byteStride":12,"target":34962},{"buffer":0,"byteLength":384,"byteOffset":65992,"byteStride":12,"target":34962},{"buffer":0,"byteLength":256,"byteOffset":66376,"byteStride":8,"target":34962},{"buffer":0,"byteLength":120,"byteOffset":66632,"target":34963},{"buffer":0,"byteLength":912,"byteOffset":66752,"byteStride":12,"target":34962},{"buffer":0,"byteLength":912,"byteOffset":67664,"byteStride":12,"target":34962},{"buffer":0,"byteLength":608,"byteOffset":68576,"byteStride":8,"target":34962},{"buffer":0,"byteLength":288,"byteOffset":69184,"target":34963},{"buffer":0,"byteLength":288,"byteOffset":69472,"byteStride":12,"target":34962},{"buffer":0,"byteLength":288,"byteOffset":69760,"byteStride":12,"target":34962},{"buffer":0,"byteLength":192,"byteOffset":70048,"byteStride":8,"target":34962},{"buffer":0,"byteLength":72,"byteOffset":70240,"target":34963},{"buffer":0,"byteLength":288,"byteOffset":70312,"byteStride":12,"target":34962},{"buffer":0,"byteLength":288,"byteOffset":70600,"byteStride":12,"target":34962},{"buffer":0,"byteLength":192,"byteOffset":70888,"byteStride":8,"target":34962},{"buffer":0,"byteLength":72,"byteOffset":71080,"target":34963},{"buffer":0,"byteLength":48,"byteOffset":71152},{"buffer":0,"byteLength":64,"byteOffset":71200},{"buffer":0,"byteLength":48,"byteOffset":71264}],"buffers":[{"byteLength":71312,"uri":"data:application/octet-stream;base64,"}],"extensionsRequired":["EXT_mesh_gpu_instancing"],"extensionsUsed":["KHR_materials_emissive_strength","EXT_mesh_gpu_instancing"],"materials":[{"name":"charcoal-metal","pbrMetallicRoughness":{"baseColorFactor":[0.01764195448412081,0.02028856305209031,0.024157632443547246,1],"metallicFactor":0.82,"roughnessFactor":0.48}},{"emissiveFactor":[1,0.10224173307914941,0.008023192982520563],"extensions":{"KHR_materials_emissive_strength":{"emissiveStrength":1.7}},"name":"ember-core","pbrMetallicRoughness":{"baseColorFactor":[0.06847816983662762,0.010960094003125918,0.002428215868235294,1],"metallicFactor":0.25,"roughnessFactor":0.28}},{"emissiveFactor":[0.08865558627723595,0.6938717612856897,0.8069522576650873],"extensions":{"KHR_materials_emissive_strength":{"emissiveStrength":1.35}},"name":"sensor-cyan","pbrMetallicRoughness":{"baseColorFactor":[0.002428215868235294,0.025186859622305935,0.0343398068028541,1],"metallicFactor":0.35,"roughnessFactor":0.24}},{"name":"oxidized-steel","pbrMetallicRoughness":{"baseColorFactor":[0.10461648408208657,0.08228270712149792,0.06301001764564068,1],"metallicFactor":0.7,"roughnessFactor":0.65}},{"emissiveFactor":[0.04231141061442144,0.008568125615105716,0.0006070539670588235],"extensions":{"KHR_materials_emissive_strength":{"emissiveStrength":0.25}},"name":"maintenance-marker","pbrMetallicRoughness":{"baseColorFactor":[0.6307571363387763,0.2541520943200296,0.02732089163382382,1],"metallicFactor":0.3,"roughnessFactor":0.55}}],"meshes":[{"primitives":[{"attributes":{"NORMAL":1,"POSITION":0,"TEXCOORD_0":2},"material":0,"mode":4}]},{"primitives":[{"attributes":{"NORMAL":4,"POSITION":3,"TEXCOORD_0":5},"indices":6,"material":1,"mode":4}]},{"primitives":[{"attributes":{"NORMAL":8,"POSITION":7,"TEXCOORD_0":9},"indices":10,"material":2,"mode":4}]},{"primitives":[{"attributes":{"NORMAL":15,"POSITION":14,"TEXCOORD_0":16},"indices":17,"material":3,"mode":4}]},{"primitives":[{"attributes":{"NORMAL":19,"POSITION":18,"TEXCOORD_0":20},"indices":21,"material":4,"mode":4}]},{"primitives":[{"attributes":{"NORMAL":23,"POSITION":22,"TEXCOORD_0":24},"indices":25,"material":3,"mode":4}]},{"primitives":[{"attributes":{"NORMAL":27,"POSITION":26,"TEXCOORD_0":28},"indices":29,"material":0,"mode":4}]},{"primitives":[{"attributes":{"NORMAL":31,"POSITION":30,"TEXCOORD_0":32},"indices":33,"material":3,"mode":4}]},{"primitives":[{"attributes":{"NORMAL":35,"POSITION":34,"TEXCOORD_0":36},"indices":37,"material":3,"mode":4}]},{"primitives":[{"attributes":{"NORMAL":39,"POSITION":38,"TEXCOORD_0":40},"indices":41,"material":4,"mode":4}]}],"nodes":[{"children":[1,2,3,5,8,9,10,11,12],"extras":{"canonicalId":"cinder-relay-drone","ownership":"OWNED","visualRole":"industrial relay drone silhouette"},"name":"cinder-relay-drone"},{"extras":{"canonicalId":"core-housing","materialAssignment":["charcoal-metal"],"ownership":"OWNED","visualRole":"compact faceted armored core"},"mesh":0,"name":"core-housing","scale":[1.22,0.78,0.86]},{"extras":{"canonicalId":"ember-core","materialAssignment":["ember-core"],"ownership":"OWNED","visualRole":"front thermal relay core"},"mesh":1,"name":"ember-core","scale":[1.1,0.78,0.42],"translation":[0,-0.02,0.47]},{"children":[4],"extras":{"canonicalId":"forward-sensor-cluster","materialAssignment":["sensor-cyan"],"ownership":"OWNED","visualRole":"paired cold-cyan forward sensors"},"name":"forward-sensor-cluster","translation":[0,0.18,0.5]},{"extensions":{"EXT_mesh_gpu_instancing":{"attributes":{"ROTATION":12,"SCALE":13,"TRANSLATION":11}}},"extras":{"ownership":"OWNED"},"mesh":2,"name":"forward-sensor-pair"},{"children":[6,7],"extras":{"canonicalId":"relay-arc-root","materialAssignment":["oxidized-steel","maintenance-marker"],"ownership":"OWNED","visualRole":"broken upper signal relay arc"},"name":"relay-arc-root","rotation":[0.05995201407790342,0.0011992001791792776,-0.019962679891269264,0.9980009064817986],"translation":[0,0.43,-0.03]},{"extras":{"canonicalId":"relay-arc-left","materialAssignment":["oxidized-steel"],"ownership":"OWNED","visualRole":"left relay arc segment"},"mesh":3,"name":"relay-arc-left","rotation":[0,0,0.43045788030090887,0.9026106653961321],"translation":[-0.035,0.03,0]},{"extras":{"canonicalId":"relay-arc-right","materialAssignment":["maintenance-marker"],"ownership":"OWNED","visualRole":"short repaired relay arc segment"},"mesh":4,"name":"relay-arc-right","rotation":[0,0,0.9044121893788258,0.4266598079301574],"translation":[0.035,0.03,0]},{"extras":{"canonicalId":"stabilizer-left","materialAssignment":["oxidized-steel"],"ownership":"OWNED","visualRole":"broad industrial hover stabilizer"},"mesh":5,"name":"stabilizer-left","rotation":[0.0019986337023355123,0.04993919126608886,0.039939357931922194,0.9979513667143298],"translation":[-0.73,-0.03,-0.02]},{"extras":{"canonicalId":"stabilizer-right","materialAssignment":["charcoal-metal"],"ownership":"OWNED","visualRole":"compact replacement stabilizer"},"mesh":6,"name":"stabilizer-right","rotation":[0.0007997333656868065,-0.03998133658638884,-0.01998266989305576,0.9990002733008909],"translation":[0.69,0.02,-0.02]},{"extras":{"canonicalId":"lower-service-module","materialAssignment":["oxidized-steel"],"ownership":"OWNED","visualRole":"underslung maintenance and cooling module"},"mesh":7,"name":"lower-service-module","rotation":[0,0,0.024997395914712332,0.9996875162757026],"translation":[0.04,-0.48,-0.02]},{"extras":{"canonicalId":"damaged-panel","materialAssignment":["oxidized-steel"],"ownership":"OWNED","visualRole":"single displaced armor access panel"},"mesh":8,"name":"damaged-panel","rotation":[0.029163486886388316,-0.11296623255675414,0.0898382778137203,0.9890991887439934],"translation":[0.39,0.02,0.47]},{"children":[13],"extras":{"canonicalId":"maintenance-markers","materialAssignment":["maintenance-marker"],"ownership":"OWNED","visualRole":"asymmetric field-service markings"},"name":"maintenance-markers"},{"extensions":{"EXT_mesh_gpu_instancing":{"attributes":{"ROTATION":43,"SCALE":44,"TRANSLATION":42}}},"extras":{"ownership":"OWNED"},"mesh":9,"name":"maintenance-marker-stripes"}],"scene":0,"scenes":[{"name":"AuxScene","nodes":[0]}]}
